
<svg width="22px" height="21px" viewBox="0 0 22 21" version="1.1" xmlns="http://www.w3.org/2000/svg" xmlns:xlink="http://www.w3.org/1999/xlink">
    <!-- Generator: Sketch 44.1 (41455) - http://www.bohemiancoding.com/sketch -->
    <desc>Created with Sketch.</desc>
    <defs>
        <polygon id="path-1" points="0.000252938613 0.401001563 21.0879368 0.401001563 21.0879368 20.3716299 0.000252938613 20.3716299 0.000252938613 0.401001563"></polygon>
    </defs>
    <g id="Welcome" stroke="none" stroke-width="1" fill="none" fill-rule="evenodd">
        <g id="Desktop-HD" transform="translate(-130.000000, -127.000000)">
            <g id="Page-1-Copy" transform="translate(130.000000, 126.000000)">
                <g id="Group-3" transform="translate(0.000000, 0.671624)">
                    <mask id="mask-2" fill="white">
                        <use xlink:href="#path-1"></use>
                    </mask>
                    <g id="Clip-2"></g>
                    <path d="M16.6458794,17.1271627 C16.5326498,17.2193716 16.3605409,17.1303793 16.3775253,16.9909937 C16.4386693,16.4913501 16.4477276,15.9027141 16.3831868,15.2090028 C16.3027938,14.365184 16.1227588,13.4366617 15.8532724,12.4631071 C15.8351556,12.3987753 15.8645953,12.3290825 15.9234747,12.2926278 C16.8213852,11.7554573 17.6219183,11.1936262 18.2877082,10.6275064 C18.8368716,10.1611008 19.2546887,9.72578897 19.5672023,9.32157081 C19.6555214,9.20684577 19.8457471,9.25509462 19.8627315,9.39555239 C20.209214,12.309783 18.9987899,15.220797 16.6458794,17.1271627 M14.4865914,8.76402853 C14.1355798,8.00062449 13.7517315,7.26080877 13.3475019,6.56173653 C13.2954163,6.47167201 13.3475019,6.36016355 13.4528054,6.33764742 C14.6405837,6.06638166 15.7196615,5.92806829 16.6153074,5.92806829 C17.9355642,5.92806829 18.8572529,6.22721116 19.1414591,6.84801305 C19.6204202,7.88911603 18.1756109,9.55745409 15.6573852,11.1357276 C15.5679339,11.192554 15.4456459,11.1518106 15.411677,11.0553129 C15.1489844,10.3015586 14.8387354,9.53279356 14.4865914,8.76402853 M14.2850428,18.524235 C14.1435058,18.5821336 13.9917782,18.6100107 13.8309922,18.6100107 C12.73493,18.6100107 11.2085953,17.3040752 9.75585992,15.2250858 C9.69584825,15.1393101 9.73887549,15.024585 9.8407821,14.9924191 C10.6356537,14.7436695 11.4475097,14.4509598 12.2604981,14.1153622 C13.0712218,13.781909 13.8513735,13.4195066 14.5873658,13.0388767 C14.6813463,12.9895557 14.7991051,13.0388767 14.8251479,13.1375188 C15.5305681,15.9177249 15.3845019,18.071768 14.2850428,18.524235 M10.5518638,19.2619063 C7.83661868,19.2619063 5.21761868,18.1360998 3.43085603,16.1621857 C3.3334786,16.054966 3.42745914,15.8909199 3.57578988,15.9070029 C3.85093774,15.9380966 4.15099611,15.9541795 4.48049416,15.9541795 C5.60146693,15.9541795 6.9307821,15.7633285 8.35521012,15.4095036 C8.42314786,15.3923485 8.49674708,15.4191534 8.53524514,15.477052 C8.99156031,16.1621857 9.46599222,16.7894208 9.94268872,17.3319523 C10.5348794,18.006364 11.1112179,18.5381736 11.670572,18.9284532 C11.7905953,19.0110123 11.739642,19.1900692 11.5924436,19.2061521 C11.2448288,19.243679 10.8983463,19.2619063 10.5518638,19.2619063 M1.95321012,13.9245112 C1.47538132,12.8834082 2.92019066,11.213998 5.43841634,9.63679664 C5.5278677,9.57997022 5.64902335,9.62071369 5.68299222,9.71828359 C5.94681712,10.4709657 6.25593385,11.2408029 6.60921012,12.0084957 C6.95908949,12.7718998 7.34293774,13.5117155 7.74829961,14.2107877 C7.80038521,14.2997801 7.74829961,14.4123607 7.6441284,14.435949 C6.45635019,14.7061426 5.37614008,14.8455282 4.48049416,14.8455282 C3.16023735,14.8455282 2.23741634,14.5453131 1.95321012,13.9245112 M4.44992218,3.64536153 C4.56201946,3.55315261 4.7352607,3.64214494 4.71827626,3.78153051 C4.656,4.28117417 4.64694163,4.86873795 4.71261479,5.56352141 C4.79187549,6.40734021 4.97191051,7.33586254 5.24252918,8.30834494 C5.25951362,8.37374894 5.23120623,8.44236953 5.17119455,8.47989641 C4.27328405,9.01706695 3.47275097,9.57889802 2.80696109,10.1450179 C2.25892996,10.6114234 1.84111284,11.0467353 1.52746693,11.4509534 C1.43914786,11.5656785 1.24892218,11.5174296 1.23307004,11.3769719 C0.885455253,8.46274126 2.09587938,5.55172725 4.44992218,3.64536153 M6.81075875,2.24828924 C6.95116342,2.18931842 7.10289105,2.16251351 7.26480934,2.16251351 C8.3608716,2.16144131 9.88607393,3.46844908 11.3388093,5.54743846 C11.398821,5.632142 11.3557938,5.74793924 11.2538872,5.78010514 C10.4590156,6.02778258 9.64715953,6.32156447 8.8353035,6.65608984 C8.02457977,6.99061521 7.24329572,7.35301769 6.5084358,7.73364751 C6.41445525,7.78296856 6.2955642,7.73364751 6.2706537,7.63393322 C5.56523346,4.8547994 5.71129961,2.70075625 6.81075875,2.24828924 M13.4131751,9.20684577 C13.8060817,10.0646031 14.1378444,10.9094941 14.4073307,11.721147 C14.4311089,11.7908398 14.3994047,11.8669658 14.3314669,11.9023482 C13.5501829,12.3226494 12.6998288,12.7268675 11.7939922,13.0989198 C10.8870233,13.4720442 9.99477432,13.7861978 9.13649416,14.0413806 C9.06289494,14.0638968 8.98250195,14.0328031 8.94513619,13.9695435 C8.50240856,13.2286556 8.07666537,12.4223636 7.68262646,11.5656785 C7.28858755,10.7089933 6.9568249,9.86303014 6.68733852,9.05137725 C6.66469261,8.98061227 6.69639689,8.9055585 6.76320233,8.87017601 C7.54561868,8.4498749 8.39710506,8.04565675 9.30294163,7.6736045 C10.2076459,7.30048005 11.1010272,6.98632642 11.9581751,6.73114361 C12.0329066,6.70862748 12.1121673,6.73972118 12.1495331,6.80298079 C12.593393,7.5438687 13.0191362,8.34908841 13.4131751,9.20684577 M10.5428054,1.51061792 C13.2591829,1.51061792 15.8770506,2.63535225 17.6638132,4.61033855 C17.7611907,4.71755822 17.6672101,4.88160432 17.5188794,4.86444917 C17.2448638,4.83442766 16.9448054,4.81834471 16.6164397,4.81834471 L16.6153074,4.81834471 C15.4932023,4.81834471 14.1661518,5.00919572 12.7405914,5.36194843 C12.6715214,5.38017578 12.5990545,5.35337086 12.5616887,5.29547224 C12.1031089,4.61033855 11.628677,3.98417568 11.1519805,3.43949977 C10.5609222,2.76508805 9.98345136,2.23327849 9.42522957,1.84407109 C9.30520623,1.76151194 9.35615953,1.5824551 9.50222568,1.56529995 C9.84984047,1.52884526 10.1974553,1.51061792 10.5428054,1.51061792 M20.2556381,6.49954912 C20.2431829,6.46738322 20.2295953,6.43521732 20.2160078,6.40519581 C20.2058171,6.38267968 20.1944942,6.35801916 20.1820389,6.33550303 C18.4903891,2.72756116 14.7175798,0.399822146 10.5428054,0.399822146 C9.09459922,0.399822146 7.68149416,0.679665483 6.34312062,1.23077458 C6.31254864,1.24364094 6.28197665,1.2575795 6.24914008,1.27259025 C3.71279767,2.34371475 1.75845525,4.27688538 0.738256809,6.72792702 C-0.280809339,9.17789646 -0.242311284,11.8540994 0.840163424,14.2772639 C0.852618677,14.3062132 0.863941634,14.3351625 0.877529183,14.365184 C0.877529183,14.365184 0.878661479,14.3662562 0.878661479,14.3673284 C0.88092607,14.370545 0.882058366,14.3737616 0.884322957,14.3780504 C0.893381323,14.3973499 0.903571984,14.4177217 0.91263035,14.4370212 C2.60428016,18.0438909 6.37822179,20.3716299 10.5518638,20.3716299 C12.00007,20.3716299 13.4143074,20.0928588 14.7515486,19.5417497 L14.7538132,19.5406775 C14.7843852,19.5278111 14.8172218,19.5138726 14.8477938,19.4988618 C20.079,17.2858478 22.487393,11.4949135 20.2556381,6.49954912" id="Fill-1" fill="#073575" mask="url(#mask-2)"></path>
                </g>
            </g>
        </g>
    </g>
</svg>
